<svg width="80" height="21" viewBox="0 0 80 21" fill="none" xmlns="http://www.w3.org/2000/svg">
<rect x="0.5" y="0.5" width="20" height="20" fill="black" stroke="#E0E0E0"/>
<g clip-path="url(#clip0_33_2062)">
<path fill-rule="evenodd" clip-rule="evenodd" d="M8.81818 4C9.0343 4.00249 9.24077 4.07914 9.3936 4.21363C9.54643 4.34812 9.63354 4.52982 9.63636 4.72V15.28C9.63354 15.4702 9.54643 15.6519 9.3936 15.7864C9.24077 15.9209 9.0343 15.9975 8.81818 16C8.60207 15.9975 8.39559 15.9209 8.24276 15.7864C8.08993 15.6519 8.00283 15.4702 8 15.28V4.72C8.00283 4.52982 8.08993 4.34812 8.24276 4.21363C8.39559 4.07914 8.60207 4.00249 8.81818 4Z" fill="white"/>
<path fill-rule="evenodd" clip-rule="evenodd" d="M13.1817 4C13.3978 4.00249 13.6043 4.07914 13.7571 4.21363C13.91 4.34812 13.9971 4.52982 13.9999 4.72V15.28C13.9971 15.4702 13.91 15.6519 13.7571 15.7864C13.6043 15.9209 13.3978 15.9975 13.1817 16C12.9656 15.9975 12.7591 15.9209 12.6063 15.7864C12.4535 15.6519 12.3664 15.4702 12.3635 15.28V4.72C12.3664 4.52982 12.4535 4.34812 12.6063 4.21363C12.7591 4.07914 12.9656 4.00249 13.1817 4Z" fill="white"/>
</g>
<rect x="28.5" y="0.5" width="20" height="20" stroke="#E0E0E0"/>
<g clip-path="url(#clip1_33_2062)">
<path fill-rule="evenodd" clip-rule="evenodd" d="M34.7105 4C34.8982 4.00249 35.0775 4.07914 35.2102 4.21363C35.343 4.34812 35.4186 4.52982 35.4211 4.72V15.28C35.4186 15.4702 35.343 15.6519 35.2102 15.7864C35.0775 15.9209 34.8982 15.9975 34.7105 16C34.5228 15.9975 34.3435 15.9209 34.2108 15.7864C34.0781 15.6519 34.0025 15.4702 34 15.28V4.72C34.0025 4.52982 34.0781 4.34812 34.2108 4.21363C34.3435 4.07914 34.5228 4.00249 34.7105 4Z" fill="black"/>
<path fill-rule="evenodd" clip-rule="evenodd" d="M38.5001 4C38.6878 4.00249 38.8671 4.07914 38.9998 4.21363C39.1325 4.34812 39.2081 4.52982 39.2106 4.72V15.28C39.2081 15.4702 39.1325 15.6519 38.9998 15.7864C38.8671 15.9209 38.6878 15.9975 38.5001 16C38.3124 15.9975 38.1331 15.9209 38.0004 15.7864C37.8677 15.6519 37.792 15.4702 37.7896 15.28V4.72C37.792 4.52982 37.8677 4.34812 38.0004 4.21363C38.1331 4.07914 38.3124 4.00249 38.5001 4Z" fill="black"/>
<path fill-rule="evenodd" clip-rule="evenodd" d="M42.2894 4C42.4771 4.00249 42.6564 4.07914 42.7891 4.21363C42.9218 4.34812 42.9975 4.52982 42.9999 4.72V15.28C42.9975 15.4702 42.9218 15.6519 42.7891 15.7864C42.6564 15.9209 42.4771 15.9975 42.2894 16C42.1017 15.9975 41.9224 15.9209 41.7897 15.7864C41.657 15.6519 41.5813 15.4702 41.5789 15.28V4.72C41.5813 4.52982 41.657 4.34812 41.7897 4.21363C41.9224 4.07914 42.1017 4.00249 42.2894 4Z" fill="black"/>
</g>
<rect x="59.5" y="0.5" width="20" height="20" stroke="#E0E0E0"/>
<g clip-path="url(#clip2_33_2062)">
<path fill-rule="evenodd" clip-rule="evenodd" d="M63.7222 4C63.913 4.00249 64.0952 4.07914 64.2302 4.21363C64.3651 4.34812 64.442 4.52982 64.4444 4.72V15.28C64.442 15.4702 64.3651 15.6519 64.2302 15.7864C64.0952 15.9209 63.913 15.9975 63.7222 16C63.5315 15.9975 63.3492 15.9209 63.2143 15.7864C63.0794 15.6519 63.0025 15.4702 63 15.28V4.72C63.0025 4.52982 63.0794 4.34812 63.2143 4.21363C63.3492 4.07914 63.5315 4.00249 63.7222 4Z" fill="black"/>
<path fill-rule="evenodd" clip-rule="evenodd" d="M67.574 4C67.7648 4.00249 67.9471 4.07914 68.082 4.21363C68.2169 4.34812 68.2938 4.52982 68.2963 4.72V15.28C68.2938 15.4702 68.2169 15.6519 68.082 15.7864C67.9471 15.9209 67.7648 15.9975 67.574 16C67.3833 15.9975 67.201 15.9209 67.0661 15.7864C66.9312 15.6519 66.8543 15.4702 66.8518 15.28V4.72C66.8543 4.52982 66.9312 4.34812 67.0661 4.21363C67.201 4.07914 67.3833 4.00249 67.574 4Z" fill="black"/>
<path fill-rule="evenodd" clip-rule="evenodd" d="M71.4258 4C71.6166 4.00249 71.7989 4.07914 71.9338 4.21363C72.0687 4.34812 72.1456 4.52982 72.1481 4.72V15.28C72.1456 15.4702 72.0687 15.6519 71.9338 15.7864C71.7989 15.9209 71.6166 15.9975 71.4258 16C71.2351 15.9975 71.0528 15.9209 70.9179 15.7864C70.783 15.6519 70.7061 15.4702 70.7036 15.28V4.72C70.7061 4.52982 70.783 4.34812 70.9179 4.21363C71.0528 4.07914 71.2351 4.00249 71.4258 4Z" fill="black"/>
<path fill-rule="evenodd" clip-rule="evenodd" d="M75.2779 4C75.4687 4.00249 75.6509 4.07914 75.7858 4.21363C75.9207 4.34812 75.9976 4.52982 76.0001 4.72V15.28C75.9976 15.4702 75.9207 15.6519 75.7858 15.7864C75.6509 15.9209 75.4687 15.9975 75.2779 16C75.0871 15.9975 74.9049 15.9209 74.77 15.7864C74.6351 15.6519 74.5582 15.4702 74.5557 15.28V4.72C74.5582 4.52982 74.6351 4.34812 74.77 4.21363C74.9049 4.07914 75.0871 4.00249 75.2779 4Z" fill="black"/>
</g>
<defs>
<clipPath id="clip0_33_2062">
<rect width="6" height="12" fill="white" transform="translate(8 4)"/>
</clipPath>
<clipPath id="clip1_33_2062">
<rect width="9" height="12" fill="white" transform="translate(34 4)"/>
</clipPath>
<clipPath id="clip2_33_2062">
<rect width="13" height="12" fill="white" transform="translate(63 4)"/>
</clipPath>
</defs>
</svg>
